<svg xmlns="http://www.w3.org/2000/svg" viewBox="0 0 315.32 126.91"><defs><style>.cls-1{fill:#0077ae;}.cls-2{fill:#001446;}</style></defs><title>logo_dc_color</title><g id="Livello_2" data-name="Livello 2"><g id="Livello_1-2" data-name="Livello 1"><path class="cls-1" d="M.76.69H15.34C26.81.69,29,8.23,29,21.1,29,27.45,30,42,15,42H.76M9.5,35.63h4.23c5.32,0,6.38-4,6.38-14.3,0-7.61,0-14.3-6.09-14.3H9.5Z"/><polyline class="cls-1" points="35.97 41.98 35.97 0.69 58.79 0.69 58.79 7.03 44.72 7.03 44.72 17.21 57.69 17.21 57.69 23.56 44.72 23.56 44.72 35.63 59.25 35.63 59.25 41.98"/><polyline class="cls-1" points="64.99 41.98 64.99 0.69 76.81 0.69 87.92 29.28 88.05 29.28 88.05 0.69 96.2 0.69 96.2 41.98 84.68 41.98 73.27 11.78 73.16 11.78 73.16 41.98"/><polyline class="cls-1" points="128.47 0.69 128.47 7.55 118.73 7.55 118.73 41.98 110 41.98 110 7.55 100.26 7.55 100.26 0.69"/><path class="cls-1" d="M125.87,42,137.46.69H149L160.34,42h-9.21l-2.32-9.15H136.88L134.5,42m8.23-33.34h-.11l-4,17.85H147Z"/><polyline class="cls-1" points="164.51 41.98 164.51 0.69 173.24 0.69 173.24 35.11 186.34 35.11 186.34 41.98"/><path class="cls-1" d="M189.59,21.33c0-10.92,0-21.33,13.71-21.33,8.46,0,11.88,4.86,11.55,13.73h-8.14c0-5.49-.94-7.56-3.41-7.56-4.68,0-5.28,4.58-5.28,15.16s.6,15.15,5.28,15.15c3.84,0,3.68-5.14,3.8-8.4h8.19c0,11-4.24,14.58-12,14.58-13.71,0-13.71-10.52-13.71-21.33"/><path class="cls-1" d="M220.19,21.33c0-10.92,0-21.33,13.7-21.33s13.69,10.41,13.69,21.33,0,21.33-13.69,21.33-13.7-10.52-13.7-21.33m19,0c0-10.58-.6-15.16-5.28-15.16s-5.29,4.58-5.29,15.16.62,15.15,5.29,15.15,5.28-4.56,5.28-15.15"/><path class="cls-1" d="M253.81,21.33c0-10.92,0-21.33,13.7-21.33S281.2,10.41,281.2,21.33s0,21.33-13.69,21.33-13.7-10.52-13.7-21.33m19,0c0-10.58-.61-15.16-5.28-15.16s-5.28,4.58-5.28,15.16.61,15.15,5.28,15.15,5.28-4.56,5.28-15.15"/><path class="cls-1" d="M287.86.69h15c7.59,0,10.56,4.8,10.56,12.35,0,4.69-1.32,12.12-11.05,12.12h-6.16V42h-8.32m8.32-23.16h4.62c2.47,0,4.18-2.81,4.18-5.55C305,9.89,304.1,7,300.36,7h-4.18Z"/><path class="cls-2" d="M156.7,81.07c73.25-.2,130.65-20,156.69-32.49,0,0-68.84,20.6-156.69,19.55C68.84,69.18,0,48.58,0,48.58,26.05,61.11,83.44,80.87,156.7,81.07"/><path class="cls-1" d="M116.92,105.6a6.22,6.22,0,1,0,0,9.29v2.23a8.1,8.1,0,0,1-4,1.07,7.85,7.85,0,0,1-7.9-7.82,8,8,0,0,1,8.06-8,7.24,7.24,0,0,1,3.82,1Z"/><path class="cls-1" d="M128.19,113.18a5,5,0,1,1-5-5,4.95,4.95,0,0,1,5,5m-8.25,0a3.22,3.22,0,1,0,3.22-3.28,3.27,3.27,0,0,0-3.22,3.28"/><rect class="cls-1" x="129.92" y="100.41" width="1.81" height="17.46"/><path class="cls-1" d="M143.52,113.18a5,5,0,1,1-5-5,5,5,0,0,1,5,5m-8.25,0a3.22,3.22,0,1,0,3.22-3.28,3.27,3.27,0,0,0-3.22,3.28"/><path class="cls-1" d="M149,110.61a1.38,1.38,0,0,0-1.21-.83,1,1,0,0,0-1,.93c0,.82,1.08,1.18,2.19,1.69s2.17,1.18,2.17,2.67a3.16,3.16,0,0,1-3.24,3.12,3.47,3.47,0,0,1-3.25-2.11l1.55-.71a1.85,1.85,0,0,0,1.7,1.21,1.35,1.35,0,0,0,1.43-1.33,1.13,1.13,0,0,0-.66-1l-1.77-1c-1-.56-1.81-1.08-1.81-2.37a2.75,2.75,0,0,1,2.77-2.74,2.81,2.81,0,0,1,2.58,1.65Z"/><path class="cls-1" d="M156.67,110.61a1.38,1.38,0,0,0-1.2-.83,1,1,0,0,0-1,.93c0,.82,1.09,1.18,2.19,1.69s2.18,1.18,2.18,2.67a3.16,3.16,0,0,1-3.24,3.12,3.48,3.48,0,0,1-3.26-2.11l1.55-.71a1.86,1.86,0,0,0,1.71,1.21,1.35,1.35,0,0,0,1.43-1.33,1.12,1.12,0,0,0-.67-1l-1.77-1c-1-.56-1.81-1.08-1.81-2.37a2.75,2.75,0,0,1,2.78-2.74,2.81,2.81,0,0,1,2.57,1.65Z"/><path class="cls-1" d="M161.71,113.46a3,3,0,0,0,2.83,3.12,3.1,3.1,0,0,0,2.82-1.83l1.53.86a4.92,4.92,0,0,1-4.37,2.58c-2.88,0-4.63-2.17-4.63-5s1.55-5.07,4.59-5.07,4.41,2.21,4.41,5v.28Zm5.36-1.37a2.54,2.54,0,0,0-2.59-2.35,2.69,2.69,0,0,0-2.67,2.35Z"/><path class="cls-1" d="M172.17,108.45v5.21c0,1.51.38,2.84,2.17,2.84s2.17-1.33,2.17-2.84v-5.21h1.81v5.41c0,2.58-1.21,4.33-4,4.33s-4-1.75-4-4.33v-5.41Z"/><path class="cls-1" d="M182.49,109.64h0a3.07,3.07,0,0,1,2.49-1.47,3,3,0,0,1,2.71,1.67,3.42,3.42,0,0,1,2.9-1.67c2.47,0,3.12,1.93,3.12,4.07v5.63h-1.81v-5.33c0-1.21-.16-2.76-1.75-2.76-1.93,0-2.07,2-2.07,3.46v4.63h-1.81v-5c0-1.23-.06-3.1-1.73-3.1-1.93,0-2.09,2-2.09,3.46v4.63h-1.81v-9.42h1.81Z"/><path class="cls-1" d="M202,102.7h3.14c4.64,0,8.5,2.46,8.5,7.5s-3.78,7.67-8.56,7.67H202Zm1.89,13.44h.66c3.86,0,7.2-1.45,7.2-5.86s-3.34-5.85-7.2-5.85h-.66Z"/><path class="cls-1" d="M216.44,113.46a3,3,0,0,0,2.84,3.12,3.08,3.08,0,0,0,2.81-1.83l1.53.86a4.89,4.89,0,0,1-4.36,2.58c-2.88,0-4.63-2.17-4.63-5s1.55-5.07,4.59-5.07,4.4,2.21,4.4,5v.28Zm5.37-1.37a2.54,2.54,0,0,0-2.59-2.35,2.7,2.7,0,0,0-2.68,2.35Z"/><path class="cls-1" d="M227,109.72h0a3.24,3.24,0,0,1,2.84-1.55c2.66,0,3.34,1.79,3.34,4.08v5.62h-1.81v-5.39c0-1.61-.22-2.7-2.07-2.7-2.34,0-2.34,2-2.34,3.76v4.33h-1.81v-9.42H227Z"/><polygon class="cls-1" points="237.77 117.87 235.96 117.87 235.96 110.14 234.97 110.14 234.97 108.45 235.96 108.45 235.96 104.85 237.77 104.85 237.77 108.45 239.54 108.45 239.54 110.14 237.77 110.14 237.77 117.87"/><path class="cls-1" d="M249.35,117.87h-1.81V116.4h0a3.87,3.87,0,0,1-3.2,1.79c-2.87,0-4.5-2.4-4.5-5.09s1.71-4.93,4.45-4.93A3.86,3.86,0,0,1,247.5,110h0v-1.57h1.81Zm-1.71-4.71a3.09,3.09,0,0,0-3-3.38,3.12,3.12,0,0,0-3,3.38c0,1.77,1.07,3.42,3,3.42s3-1.57,3-3.42"/><rect class="cls-1" x="251.79" y="100.41" width="1.81" height="17.46"/><path class="cls-1" d="M276,110.22v.61a7,7,0,0,1-7.18,7.36,7.91,7.91,0,0,1,.2-15.81,8,8,0,0,1,6.17,2.94l-1.33,1.26a6,6,0,0,0-10.82,3.68,6.2,6.2,0,0,0,5.9,6.2c2.35,0,4.88-2,5-4.51H270v-1.73Z"/><path class="cls-1" d="M279.61,110h.06a2.72,2.72,0,0,1,2.58-1.81,2.8,2.8,0,0,1,1.48.46l-.82,1.65a1.58,1.58,0,0,0-1.11-.38c-1.95,0-2.19,1.81-2.19,3.34v4.63H277.8v-9.42h1.81Z"/><path class="cls-1" d="M294,113.18a5,5,0,1,1-5-5,4.95,4.95,0,0,1,5,5m-8.24,0a3.22,3.22,0,1,0,3.22-3.28,3.27,3.27,0,0,0-3.22,3.28"/><path class="cls-1" d="M297.34,108.45v5.21c0,1.51.38,2.84,2.17,2.84s2.17-1.33,2.17-2.84v-5.21h1.81v5.41c0,2.58-1.21,4.33-4,4.33s-4-1.75-4-4.33v-5.41Z"/><path class="cls-1" d="M307.57,110h0a3.89,3.89,0,0,1,3.28-1.85c2.72,0,4.43,2.35,4.43,4.93s-1.61,5.09-4.51,5.09a3.92,3.92,0,0,1-3.2-1.79h0v6.86h-1.81V108.45h1.81Zm5.94,3.14a3,3,0,1,0-6,0c0,1.77,1.07,3.42,3,3.42s3.06-1.57,3.06-3.42"/><path class="cls-1" d="M95.92,103.32a2.44,2.44,0,0,1,1.47.3,2.57,2.57,0,0,1,.86,1,4.61,4.61,0,0,1,.42,1.1c.1.38.2.75.27,1.14.08.54.09,1.08.16,1.62.05.35.07.71.11,1.07a7.71,7.71,0,0,1,0,1,9.71,9.71,0,0,1,0,1.53,11.44,11.44,0,0,1-.22,1.76,2.7,2.7,0,0,0,0,.28,8.17,8.17,0,0,1-.44,1.61,3.41,3.41,0,0,1-.79,1.27,1.87,1.87,0,0,1-.68.37,3.74,3.74,0,0,1-1.82.1,3.58,3.58,0,0,1-1-.25,4.71,4.71,0,0,0-.62-.16,7.79,7.79,0,0,1-1.09-.38c-.52-.22-1-.46-1.52-.72a13.39,13.39,0,0,1-1.87-1.18,12.49,12.49,0,0,1-2.25-2.17,7,7,0,0,1-.9-1.38,1.5,1.5,0,0,1-.2-1.05,4.52,4.52,0,0,1,.36-.85A8.69,8.69,0,0,1,87,108a11.21,11.21,0,0,1,1.42-1.42,12.68,12.68,0,0,1,1.18-.9,16.12,16.12,0,0,1,1.94-1.1c.5-.22,1-.45,1.52-.63l1-.31a8.67,8.67,0,0,1,1.2-.28,3,3,0,0,1,.6,0"/><path class="cls-1" d="M69.35,103.31a6.94,6.94,0,0,1,1.11.1c.34.06.66.18,1,.26a2.39,2.39,0,0,1,.67.22c.17.1.36.11.54.2s.6.23.89.37.76.36,1.13.57a12.79,12.79,0,0,1,2,1.39,11.45,11.45,0,0,1,1.87,1.94c.17.24.35.48.51.72a2.35,2.35,0,0,1,.44,1.68,1.46,1.46,0,0,1-.16.36,6.25,6.25,0,0,1-.77,1.26,11.73,11.73,0,0,1-1.75,1.84,9,9,0,0,1-1.58,1.15c-.21.12-.41.27-.62.39l-1.17.58a9.47,9.47,0,0,1-1,.42c-.21.08-.44.15-.66.22l-.74.21a6.82,6.82,0,0,1-1.33.27,5.08,5.08,0,0,1-1.1,0,2.09,2.09,0,0,1-1.55-1.15c-.16-.31-.29-.63-.43-1a4.72,4.72,0,0,1-.19-.67c-.11-.48-.19-1-.26-1.47a10.18,10.18,0,0,1-.09-1.47c0-.86,0-1.72,0-2.58a5.85,5.85,0,0,1,.17-1.77,1.13,1.13,0,0,0,0-.26,1.08,1.08,0,0,1,.1-.56.23.23,0,0,0,0-.14,5.21,5.21,0,0,1,.7-2,2.1,2.1,0,0,1,.88-.89,2.18,2.18,0,0,1,.91-.22c.13,0,.26,0,.39,0"/><path class="cls-1" d="M82.81,126.91h-2a3.69,3.69,0,0,1-1-.13.2.2,0,0,0-.11,0,6.27,6.27,0,0,1-1.61-.3,4.74,4.74,0,0,1-1.29-.53,2.13,2.13,0,0,1-1-1.07,4.3,4.3,0,0,1-.14-1.63,7.72,7.72,0,0,1,.44-1.9,11.65,11.65,0,0,1,.56-1.53,15,15,0,0,1,.72-1.45,17.46,17.46,0,0,1,1.15-1.74c.21-.28.47-.52.69-.79a9.41,9.41,0,0,1,1.5-1.39,5.19,5.19,0,0,1,1.35-.82,1.61,1.61,0,0,1,1.34,0,5.81,5.81,0,0,1,1,.56,7,7,0,0,1,1.08.87c.25.27.54.5.78.78.36.43.72.86,1,1.33s.46.68.67,1a7.62,7.62,0,0,1,.61,1.21,1.62,1.62,0,0,0,.17.32,5.86,5.86,0,0,1,.41,1c.14.44.29.88.42,1.33s.1.76.2,1.13a2.71,2.71,0,0,1,0,.94l-.06.4a1.58,1.58,0,0,1-.54,1,4.19,4.19,0,0,1-1.32.74,8.54,8.54,0,0,1-.82.25c-.42.09-.85.15-1.27.23a19.51,19.51,0,0,1-2.87.13"/><path class="cls-1" d="M89.71,97.05a4.35,4.35,0,0,1-.14,1.32,4.51,4.51,0,0,1-.24.85,2.05,2.05,0,0,0-.2.62,1.6,1.6,0,0,1-.18.49c-.19.43-.36.87-.56,1.3-.27.58-.62,1.11-.94,1.66-.17.28-.39.54-.58.81a11,11,0,0,1-1.37,1.52,8.83,8.83,0,0,1-1.75,1.3,4.25,4.25,0,0,1-.72.32,1.89,1.89,0,0,1-1.44-.29,10.16,10.16,0,0,1-1.89-1.42,7.2,7.2,0,0,1-.75-.81,8.4,8.4,0,0,1-.84-1c-.25-.4-.53-.77-.76-1.18s-.38-.68-.54-1-.32-.68-.43-1a2.09,2.09,0,0,0-.24-.58c-.07-.11,0-.23-.09-.35a7.22,7.22,0,0,1-.47-2.65,3,3,0,0,1,.21-1.07,2.5,2.5,0,0,1,.73-.79,3.62,3.62,0,0,1,.88-.44A6.86,6.86,0,0,1,79.24,94a11.78,11.78,0,0,1,2.23-.19c1,0,2,0,3.08,0a4.47,4.47,0,0,1,1,.13A3.57,3.57,0,0,0,86,94c.39.07.77.17,1.16.27s.5.16.75.23a2.42,2.42,0,0,1,.58.29,2.15,2.15,0,0,1,.85.73,1.68,1.68,0,0,1,.26.74,5.11,5.11,0,0,1,.07.76"/><path class="cls-1" d="M5.2,111.21h0a3.84,3.84,0,0,1,3.27-1.85c2.72,0,4.43,2.35,4.43,4.92s-1.61,5.09-4.51,5.09a3.87,3.87,0,0,1-3.19-1.79h0v6.86H3.39v-14.8H5.2Zm5.94,3.14A3.09,3.09,0,0,0,8.08,111a3.12,3.12,0,0,0-3,3.38c0,1.77,1.07,3.41,3,3.41s3.06-1.56,3.06-3.41"/><path class="cls-1" d="M23.55,119.05H21.74v-1.47h0a3.86,3.86,0,0,1-3.2,1.79c-2.87,0-4.5-2.39-4.5-5.09s1.71-4.92,4.44-4.92a3.85,3.85,0,0,1,3.26,1.85h0v-1.57h1.81Zm-1.71-4.7a3,3,0,1,0-6,0c0,1.77,1.06,3.41,3,3.41s3.06-1.56,3.06-3.41"/><path class="cls-1" d="M27.84,111.17h.06a2.69,2.69,0,0,1,2.57-1.81,2.84,2.84,0,0,1,1.49.46l-.83,1.65a1.57,1.57,0,0,0-1.1-.38c-2,0-2.19,1.81-2.19,3.34v4.62H26v-9.41h1.81Z"/><polygon class="cls-1" points="35.44 119.05 33.63 119.05 33.63 111.33 32.65 111.33 32.65 109.64 33.63 109.64 33.63 106.04 35.44 106.04 35.44 109.64 37.21 109.64 37.21 111.33 35.44 111.33 35.44 119.05"/><path class="cls-1" d="M53.22,114.37a5,5,0,1,1-5-5,4.95,4.95,0,0,1,5,5m-8.24,0a3.22,3.22,0,1,0,3.21-3.28A3.25,3.25,0,0,0,45,114.37"/><path class="cls-1" d="M59.54,103.43a3.24,3.24,0,0,0-1.21-.39c-1.28,0-1.28,1.63-1.28,2.56v4h2.49v1.69H57.05v7.72H55.24v-7.72h-.83v-1.69h.83v-4.59c0-2,.7-3.7,3-3.7a3.23,3.23,0,0,1,1.27.25Z"/></g></g></svg>